<svg xmlns="http://www.w3.org/2000/svg" viewBox="0 0 250 190"><defs><style>.a{fill:#67d9ea;}.b{fill:#201b53;}.c{fill:none;stroke:#67d9ea;stroke-miterlimit:10;stroke-width:0.93px;}.d{fill:#ff5732;}.e{font-size:20.62px;font-family:OpenSans-Semibold, Open Sans;font-weight:700;letter-spacing:-0.02em;}</style></defs><title>Untitled-9</title><rect class="a" x="60.5" y="146" width="150" height="43"/><rect class="b" x="39.5" y="146" width="21" height="43"/><rect class="a" x="60.5" y="103" width="150" height="43"/><rect class="b" x="39.5" y="103" width="21" height="43"/><rect class="a" x="104.78" y="84.5" width="22.22" height="19"/><rect class="b" x="94" y="84.5" width="10.78" height="19"/><rect class="b" x="66.5" y="111" width="38.43" height="24"/><line class="c" x1="85.72" y1="111" x2="85.72" y2="135"/><line class="c" x1="104.93" y1="123" x2="66.5" y2="123"/><rect class="b" x="116.28" y="111" width="38.43" height="24"/><line class="c" x1="135.5" y1="111" x2="135.5" y2="135"/><line class="c" x1="154.72" y1="123" x2="116.28" y2="123"/><rect class="b" x="166.07" y="111" width="38.43" height="24"/><line class="c" x1="185.28" y1="111" x2="185.28" y2="135"/><line class="c" x1="204.5" y1="123" x2="166.07" y2="123"/><rect class="b" x="66.5" y="149" width="38.43" height="24"/><line class="c" x1="85.72" y1="149" x2="85.72" y2="173"/><line class="c" x1="104.93" y1="161" x2="66.5" y2="161"/><rect class="b" x="166.07" y="149" width="38.43" height="24"/><line class="c" x1="185.28" y1="149" x2="185.28" y2="173"/><line class="c" x1="204.5" y1="161" x2="166.07" y2="161"/><rect class="d" x="113.5" y="151" width="49" height="6"/><rect class="b" x="113.5" y="157" width="40" height="33"/><text class="e" transform="translate(91.94 63.5)">MÉDIO</text></svg>