<svg xmlns="http://www.w3.org/2000/svg" viewBox="0 0 400 110"><defs><style>.a{fill:#26cee0;}.b{fill:#005ca9;}.c{fill:#00b0e6;}</style></defs><title>exports para svg</title><path class="a" d="M122.53,86.71a12.91,12.91,0,0,1-3.76.34c-12,0-9.27-3.06-9.83-12.12-.35-4.53-.49-7.94-.49-10.24V61.62c0-1.32.07-3.21.28-5.64a7.37,7.37,0,0,1,.21-1.26c.07-.63.14-1,.14-1.39,0-.77-.07-1.88-.14-3.49s-.14-2.71-.14-3.48c0-4.74,1.46-6.27,6.27-6.27,4.53,0,9.69,1.88,12.41,5.15a20.05,20.05,0,0,1,1,6.07,11.7,11.7,0,0,1-5.64,10.38,13.93,13.93,0,0,1,4.32,3c3.48,3.27,5.22,6.62,5.22,10.17C132.42,79.67,129.15,83.57,122.53,86.71Zm-5.85-41a7.16,7.16,0,0,0-2.65.56c-.28,2.79-.42,5.57-.42,8.29,0,1.6.07,3.28.21,4.88,2.23-.28,7.38-2.44,8.57-3.83a6,6,0,0,0,1.53-4.11C123.92,48.1,120.3,45.73,116.68,45.73Zm3.06,20.84a7.19,7.19,0,0,0-2.51-.28c-2.3,0-3.48.21-3.55.7-.07.07-.07.13-.07.34,0,1.47.14,3.63.35,6.55s.35,5.23.35,6.69a9.92,9.92,0,0,1-.07,1.61h2.44c1,.07,1.88.07,2.36.07,2.72,0,4.32-1,5.93-3.63a7.3,7.3,0,0,0,1.18-3.83C126.15,71.24,123.16,67.89,119.74,66.57Z"/><path class="a" d="M167.82,78.07c-.07.9-1.11,1.39-3.13,1.39-4.11,0-15-3-20.28-12.4,0,.69,0,1.74.07,3.13s.07,2.44.07,3.14c0,8.64-1.46,13-4.32,13-1.53-1-2.3-1.88-2.3-2.72,0-1.6,0-4-.07-7.25s-.07-5.57-.07-7.17a126.5,126.5,0,0,1,1-15.13c.2-.76.27-1.39.34-1.74,0-.07.07-6.48.7-8.36s2.16-2.86,4.6-2.86c4.81,0,4.81.49,9.27,2.72a23,23,0,0,1,2.23,1.12,11.11,11.11,0,0,1,4.39,5.5c.07.07.07.21.07.49,0,4-5.86,9.48-10.66,12.47.62,6.2,5.5,7.32,12.4,9,3.06.77,4.74,1.33,5.09,1.67a15.41,15.41,0,0,0,.34,1.68,10.65,10.65,0,0,1,.28,1.74ZM145.94,46.64C144.62,52.28,144,56,144,57.86a1.23,1.23,0,0,0,.07.42v.41c1.46-.07,7.18-3.34,8.29-4.53a3.61,3.61,0,0,0,1.12-2.64C153.47,48.8,149.22,46.92,145.94,46.64Z"/><path class="a" d="M195.56,85.73c-2.86,0-3-2.09-3.07-6.27V76.39c0-6.62.21-8.85-2.58-9.75a19.85,19.85,0,0,0-4-.21c-6.9,0-8.36.21-8.43,5.71,0,.35-.07,1-.14,1.81s-.14,1.47-.14,1.89a3.19,3.19,0,0,0,.07.69v.77c0,.63,0,1.6-.07,2.93s-.14,2.29-.14,2.92a4,4,0,0,0,.07.84v.9c0,1.12-.7,1.68-2.09,1.68s-3.21-.77-3.21-2.09V79c-.07-2.44-.07-4.25-.07-5.43,0-5.51,0-7.53.21-14.85a33.28,33.28,0,0,1,2.16-8.92,28.39,28.39,0,0,1,1.68-4.11c1.88-2.3,3.41-2.16,9.89-2.16h.84a7.21,7.21,0,0,1,3.76.77c4.18,2.72,5,7.18,5.57,14.35l1,11.08c.42,4.46.63,8.16.63,11.15S197.51,85.73,195.56,85.73Zm-6.28-35.47c-.62-2-2.92-2.16-4.8-2.16-6.07,0-7.67,11.64-7.67,12.47s1.19,1.33,3.62,1.33h1.82a9.59,9.59,0,0,0,2.09-.28,14.64,14.64,0,0,1,2.09-.21c.35,0,.83.07,1.53.14s1.12.14,1.46.14c1.33,0,2-.84,2-2.58C191.38,57.65,190.68,54.65,189.28,50.26Z"/><path class="a" d="M227.33,81.69a15.82,15.82,0,0,1-3.48,2.16,21.41,21.41,0,0,1-7,1.53c-5.85.35-8.78.56-8.71.56-1.74,0-4.46-.7-4.46-2.16a6.77,6.77,0,0,1,.56-2l.83-2.23c1.74,0,4.6-.07,8.5-.21,1,0,2.23-.07,3.84-.21,3.9-.84,6.41-2.09,7.31-5.5-.07-.14-1.81-1.47-5.15-3.91-8.5-6.27-12.76-11.29-12.76-15a4,4,0,0,1,.49-2.16c2.72-4.74,7.11-6.27,13-7.59a21.5,21.5,0,0,1,2.93-.14c5.09,0,7.6,1.67,7.6,5.08a3.72,3.72,0,0,1-.07,1,6.47,6.47,0,0,1-5,2.16,1.94,1.94,0,0,1-2.23-2.16,1.58,1.58,0,0,1-.49-.07h-.49c-4,0-9.47,2-9.47,5.36a4,4,0,0,0,.69,2.37q.74,1.05,6.9,4.81c6.69,4.11,10.94,7.11,10.94,11.92C231.51,78.13,228.17,80.92,227.33,81.69Z"/><path class="a" d="M277.64,62.87a13.48,13.48,0,0,1-3.06,2.86c-1.19.77-3.84,1.74-8,2.93h-.28c0,1.46.84,2.85,2.58,4.32,1.6,1.18,3.14,2.44,4.74,3.69a7,7,0,0,1,2.58,5.16,3.82,3.82,0,0,1-2.51.9c-3.76,0-8.64-4.46-14.56-13.31l-.07-.14.07-.06c-.77.48-1.12,1.74-1.12,3.62,0,.63.07,1.53.14,2.72s.14,2.23.14,2.85c0,3.84-1.39,5.72-4.11,5.72-1,0-1.6-1.88-1.6-5.58a76.08,76.08,0,0,1,.48-8c.21-1.46.42-3.69.7-6.62.07-2.37.21-5.92.49-10.59q.53-6.06,3.55-8.36c6.62,0,18.47-.14,21.81,6.89a7.27,7.27,0,0,1,.84,2.93C280.43,60.16,280.08,60.16,277.64,62.87ZM274,53.54c-1.33-1.61-8.15-3.14-11.22-3.14-2.58,0-4.11,2.65-4.18,5.51l-.21,8.36h.28a.26.26,0,0,0,.21.07c4.74,0,12-1.12,15.88-7.53A12.45,12.45,0,0,0,274,53.54Z"/><path class="a" d="M309.49,85.73c-2.86,0-3-2.09-3.07-6.27V76.39c0-6.62.21-8.85-2.58-9.75a19.85,19.85,0,0,0-4-.21c-6.9,0-8.36.21-8.43,5.71,0,.35-.07,1-.14,1.81s-.14,1.47-.14,1.89a3.19,3.19,0,0,0,.07.69v.77c0,.63,0,1.6-.07,2.93s-.14,2.29-.14,2.92a4,4,0,0,0,.07.84v.9c0,1.12-.7,1.68-2.09,1.68s-3.21-.77-3.21-2.09V79c-.07-2.44-.07-4.25-.07-5.43,0-5.51,0-7.53.21-14.85a33.28,33.28,0,0,1,2.16-8.92,28.39,28.39,0,0,1,1.68-4.11c1.88-2.3,3.41-2.16,9.89-2.16h.84a7.21,7.21,0,0,1,3.76.77c4.18,2.72,5,7.18,5.57,14.35l1.05,11.08c.42,4.46.63,8.16.63,11.15S311.44,85.73,309.49,85.73Zm-6.28-35.47c-.62-2-2.92-2.16-4.8-2.16-6.07,0-7.67,11.64-7.67,12.47s1.19,1.33,3.63,1.33h1.81a9.59,9.59,0,0,0,2.09-.28,14.64,14.64,0,0,1,2.09-.21c.35,0,.83.07,1.53.14s1.12.14,1.46.14c1.33,0,2-.84,2-2.58C305.31,57.65,304.61,54.65,303.21,50.26Z"/><path class="a" d="M354.64,83.92a3,3,0,0,1-2.16-.77c-.28-1-.7-2.65-1.18-4.74q-.94-4.27-2.3-13.79a130.85,130.85,0,0,0-2.37-13.8l-.35.07c-1.4,6.9-5.51,25.36-7.95,25.36-.2,0-.55-.41-1.18-1.25-1.88-2.51-4.95-10-6.34-13.94a53.9,53.9,0,0,0-2.86-7c-.35.77-1,5-1.95,12.9-.49,4.18-1.18,10-2.3,15a3.68,3.68,0,0,1-2.58.69c-2.37,0-3.55-.76-3.55-2.23a10.52,10.52,0,0,0,.35-2l.76-4.8c.63-3.7,1.54-9.13,2.72-16.45,1.19-7,2.58-14.35,4.32-16.24a20.38,20.38,0,0,1,2.86.49A5.87,5.87,0,0,1,331,44.9c.28.62.7,1.67,1.32,3l2.86,6.76a21.25,21.25,0,0,1,1.25,2.93l1.68,5.64c2.78-12.47,4.94-21.6,6.89-22.37a12.39,12.39,0,0,0,1.82.77c1.39.63,1.46.84,2.5,3.35a72.57,72.57,0,0,1,4.39,16.09c1,4.25,2.3,10.73,4,19.3l.14.77A3,3,0,0,1,354.64,83.92Z"/><path class="a" d="M386.28,67.06c0,1,.07,2.57.2,4.59s.21,3.56.21,4.6c0,4.88-.48,7.53-1.39,8a3.76,3.76,0,0,1-1.46.35,3.43,3.43,0,0,1-.77-.07h-.77c-1.25-1.26-1.88-3.84-1.88-7.67a84.19,84.19,0,0,1,.56-8.43c.28-2.51.42-4.11.42-4.81a3.18,3.18,0,0,0-1.88-.56,10.45,10.45,0,0,0-1.19.14,10.32,10.32,0,0,1-1.18.14c-.91,0-2.3-.14-4.18-.35a38.72,38.72,0,0,0-4.18-.27h-.63a3.73,3.73,0,0,1-.7.06q-.1,3.24-.21,9.62L367,82c-.69,1.6-1.67,2.37-3,2.37a2.77,2.77,0,0,1-2.79-2.86,2.34,2.34,0,0,1,.28-1.25c.21-7.81.07-19.59,2.79-36.52,1.11-1.74,5.64-2.58,13.65-2.58l-.07-.07a8.79,8.79,0,0,0,2.58-.14,36.84,36.84,0,0,1,5.93,1.33,5.26,5.26,0,0,1,1.67,3C386.83,57.3,386.28,64.62,386.28,67.06ZM376.73,46a29.87,29.87,0,0,0-7,.63,15,15,0,0,0-.77,3.27,20.73,20.73,0,0,1-.55,3.21,20.88,20.88,0,0,0-.35,3.41q2.71.31,7.11.42c.62,0,1.25.07,1.95.14l.62.07.56.07h3.35c.07-.91.14-2.65.35-5.37.2-2.16.27-4,.27-5.29C381.61,46.22,379.73,46,376.73,46Z"/><path class="a" d="M243.55,74.69l-.49,4.25c0,.28.07.7.14,1.26a9.37,9.37,0,0,1,.07,1.25c0,3-1.53,4.46-4.53,4.46h-.42a1,1,0,0,1-.21-.28,1.69,1.69,0,0,1-.34-.2,7.48,7.48,0,0,1-.63-3,14.12,14.12,0,0,1,.28-2.58,14,14,0,0,0,.28-2.51V73.09a122.51,122.51,0,0,1,1.53-18c.56-.83,2.58-1,4-1,.84.77,1.26,2.51,1.26,5.09,0,.76-.07,1.88-.14,3.2s-.14,2.3-.14,2.72A90.81,90.81,0,0,1,243.55,74.69Z"/><path class="a" d="M45.61,89.94h2.62V87.32H45.61Z"/><path class="a" d="M76.18,41H78.8V38.41H76.18Z"/><path class="a" d="M64,41h2.63V38.41H64Z"/><path class="a" d="M48.67,86.88h2.62V84.26H48.67Z"/><path class="a" d="M45.61,86.88h2.62V84.26H45.61Z"/><path class="a" d="M48.67,83.83h2.62V81.21H48.67Z"/><path class="a" d="M45.61,83.83h2.62V81.21H45.61Z"/><path class="a" d="M42.55,83.83h2.62V81.21H42.55Z"/><path class="a" d="M51.72,80.77h2.62V78.15H51.72Z"/><path class="a" d="M48.67,80.77h2.62V78.15H48.67Z"/><path class="a" d="M45.61,80.77h2.62V78.15H45.61Z"/><path class="a" d="M42.55,80.77h2.62V78.15H42.55Z"/><path class="a" d="M51.72,77.71h2.62V75.09H51.72Z"/><path class="a" d="M48.67,77.71h2.62V75.09H48.67Z"/><path class="a" d="M45.61,77.71h2.62V75.09H45.61Z"/><path class="a" d="M51.72,74.65h2.62V72H51.72Z"/><path class="a" d="M48.67,74.65h2.62V72H48.67Z"/><path class="a" d="M45.61,74.65h2.62V72H45.61Z"/><path class="a" d="M57.84,71.59h2.62V69H57.84Z"/><path class="a" d="M54.78,71.59H57.4V69H54.78Z"/><path class="a" d="M51.72,71.59h2.62V69H51.72Z"/><path class="a" d="M48.67,71.59h2.62V69H48.67Z"/><path class="a" d="M45.61,71.59h2.62V69H45.61Z"/><path class="a" d="M64,68.54h2.63V65.92H64Z"/><path class="a" d="M60.9,68.54h2.62V65.92H60.9Z"/><path class="a" d="M57.84,68.54h2.62V65.92H57.84Z"/><path class="a" d="M54.78,68.54H57.4V65.92H54.78Z"/><path class="a" d="M51.72,68.54h2.62V65.92H51.72Z"/><path class="a" d="M48.67,68.54h2.62V65.92H48.67Z"/><path class="a" d="M45.61,68.54h2.62V65.92H45.61Z"/><path class="a" d="M42.55,68.54h2.62V65.92H42.55Z"/><path class="a" d="M67,65.48h2.62V62.86H67Z"/><path class="a" d="M64,65.48h2.63V62.86H64Z"/><path class="a" d="M60.9,65.48h2.62V62.86H60.9Z"/><path class="a" d="M57.84,65.48h2.62V62.86H57.84Z"/><path class="a" d="M54.78,65.48H57.4V62.86H54.78Z"/><path class="a" d="M51.72,65.48h2.62V62.86H51.72Z"/><path class="a" d="M48.67,65.48h2.62V62.86H48.67Z"/><path class="a" d="M45.61,65.48h2.62V62.86H45.61Z"/><path class="a" d="M42.55,65.48h2.62V62.86H42.55Z"/><path class="a" d="M39.5,65.48h2.62V62.86H39.5Z"/><path class="a" d="M67,62.42h2.62V59.8H67Z"/><path class="a" d="M64,62.42h2.63V59.8H64Z"/><path class="a" d="M60.9,62.42h2.62V59.8H60.9Z"/><path class="a" d="M57.84,62.42h2.62V59.8H57.84Z"/><path class="a" d="M54.78,62.42H57.4V59.8H54.78Z"/><path class="a" d="M51.72,62.42h2.62V59.8H51.72Z"/><path class="a" d="M48.67,62.42h2.62V59.8H48.67Z"/><path class="a" d="M45.61,62.42h2.62V59.8H45.61Z"/><path class="a" d="M42.55,62.42h2.62V59.8H42.55Z"/><path class="a" d="M39.5,62.42h2.62V59.8H39.5Z"/><path class="a" d="M70.07,59.37h2.62V56.75H70.07Z"/><path class="a" d="M67,59.37h2.62V56.75H67Z"/><path class="a" d="M64,59.37h2.63V56.75H64Z"/><path class="a" d="M60.9,59.37h2.62V56.75H60.9Z"/><path class="a" d="M57.84,59.37h2.62V56.75H57.84Z"/><path class="a" d="M54.78,59.37H57.4V56.75H54.78Z"/><path class="a" d="M51.72,59.37h2.62V56.75H51.72Z"/><path class="a" d="M48.67,59.37h2.62V56.75H48.67Z"/><path class="a" d="M45.61,59.37h2.62V56.75H45.61Z"/><path class="a" d="M42.55,59.37h2.62V56.75H42.55Z"/><path class="a" d="M39.5,59.37h2.62V56.75H39.5Z"/><path class="a" d="M70.07,56.31h2.62V53.69H70.07Z"/><path class="a" d="M67,56.31h2.62V53.69H67Z"/><path class="a" d="M64,56.31h2.63V53.69H64Z"/><path class="a" d="M60.9,56.31h2.62V53.69H60.9Z"/><path class="a" d="M57.84,56.31h2.62V53.69H57.84Z"/><path class="a" d="M54.78,56.31H57.4V53.69H54.78Z"/><path class="a" d="M51.72,56.31h2.62V53.69H51.72Z"/><path class="a" d="M48.67,56.31h2.62V53.69H48.67Z"/><path class="a" d="M45.61,56.31h2.62V53.69H45.61Z"/><path class="a" d="M42.55,56.31h2.62V53.69H42.55Z"/><path class="a" d="M39.5,56.31h2.62V53.69H39.5Z"/><path class="a" d="M36.44,56.31h2.62V53.69H36.44Z"/><path class="a" d="M33.39,56.31H36V53.69H33.39Z"/><path class="a" d="M70.07,53.25h2.62V50.63H70.07Z"/><path class="a" d="M67,53.25h2.62V50.63H67Z"/><path class="a" d="M64,53.25h2.63V50.63H64Z"/><path class="a" d="M60.9,53.25h2.62V50.63H60.9Z"/><path class="a" d="M57.84,53.25h2.62V50.63H57.84Z"/><path class="a" d="M54.78,53.25H57.4V50.63H54.78Z"/><path class="a" d="M51.72,53.25h2.62V50.63H51.72Z"/><path class="a" d="M48.67,53.25h2.62V50.63H48.67Z"/><path class="a" d="M45.61,53.25h2.62V50.63H45.61Z"/><path class="a" d="M42.55,53.25h2.62V50.63H42.55Z"/><path class="a" d="M39.5,53.25h2.62V50.63H39.5Z"/><path class="a" d="M36.44,53.25h2.62V50.63H36.44Z"/><path class="a" d="M33.39,53.25H36V50.63H33.39Z"/><path class="a" d="M70.07,50.2h2.62V47.58H70.07Z"/><path class="a" d="M67,50.2h2.62V47.58H67Z"/><path class="a" d="M64,50.2h2.63V47.58H64Z"/><path class="a" d="M60.9,50.2h2.62V47.58H60.9Z"/><path class="a" d="M57.84,50.2h2.62V47.58H57.84Z"/><path class="a" d="M54.78,50.2H57.4V47.58H54.78Z"/><path class="a" d="M51.72,50.2h2.62V47.58H51.72Z"/><path class="a" d="M48.67,50.2h2.62V47.58H48.67Z"/><path class="a" d="M45.61,50.2h2.62V47.58H45.61Z"/><path class="a" d="M42.55,50.2h2.62V47.58H42.55Z"/><path class="a" d="M39.5,50.2h2.62V47.58H39.5Z"/><path class="a" d="M36.44,50.2h2.62V47.58H36.44Z"/><path class="a" d="M33.39,50.2H36V47.58H33.39Z"/><path class="a" d="M30.33,50.2H33V47.58H30.33Z"/><path class="a" d="M27.27,50.2h2.62V47.58H27.27Z"/><path class="a" d="M73.12,47.14h2.62V44.52H73.12Z"/><path class="a" d="M70.07,47.14h2.62V44.52H70.07Z"/><path class="a" d="M67,47.14h2.62V44.52H67Z"/><path class="a" d="M64,47.14h2.63V44.52H64Z"/><path class="a" d="M60.9,47.14h2.62V44.52H60.9Z"/><path class="a" d="M57.84,47.14h2.62V44.52H57.84Z"/><path class="a" d="M54.78,47.14H57.4V44.52H54.78Z"/><path class="a" d="M51.72,47.14h2.62V44.52H51.72Z"/><path class="a" d="M48.67,47.14h2.62V44.52H48.67Z"/><path class="a" d="M45.61,47.14h2.62V44.52H45.61Z"/><path class="a" d="M42.55,47.14h2.62V44.52H42.55Z"/><path class="a" d="M39.5,47.14h2.62V44.52H39.5Z"/><path class="a" d="M36.44,47.14h2.62V44.52H36.44Z"/><path class="a" d="M33.39,47.14H36V44.52H33.39Z"/><path class="a" d="M30.33,47.14H33V44.52H30.33Z"/><path class="a" d="M27.27,47.14h2.62V44.52H27.27Z"/><path class="a" d="M24.21,47.14h2.62V44.52H24.21Z"/><path class="a" d="M21.15,47.14h2.62V44.52H21.15Z"/><path class="a" d="M76.18,44.08H78.8V41.46H76.18Z"/><path class="a" d="M73.12,44.08h2.62V41.46H73.12Z"/><path class="a" d="M70.07,44.08h2.62V41.46H70.07Z"/><path class="a" d="M67,44.08h2.62V41.46H67Z"/><path class="a" d="M64,44.08h2.63V41.46H64Z"/><path class="a" d="M60.9,44.08h2.62V41.46H60.9Z"/><path class="a" d="M57.84,44.08h2.62V41.46H57.84Z"/><path class="a" d="M54.78,44.08H57.4V41.46H54.78Z"/><path class="a" d="M51.72,44.08h2.62V41.46H51.72Z"/><path class="a" d="M48.67,44.08h2.62V41.46H48.67Z"/><path class="a" d="M45.61,44.08h2.62V41.46H45.61Z"/><path class="a" d="M42.55,44.08h2.62V41.46H42.55Z"/><path class="a" d="M39.5,44.08h2.62V41.46H39.5Z"/><path class="a" d="M36.44,44.08h2.62V41.46H36.44Z"/><path class="a" d="M33.39,44.08H36V41.46H33.39Z"/><path class="a" d="M30.33,44.08H33V41.46H30.33Z"/><path class="a" d="M27.27,44.08h2.62V41.46H27.27Z"/><path class="a" d="M24.21,44.08h2.62V41.46H24.21Z"/><path class="a" d="M21.15,44.08h2.62V41.46H21.15Z"/><path class="a" d="M18.09,44.08h2.62V41.46H18.09Z"/><path class="a" d="M15,44.08h2.62V41.46H15Z"/><path class="a" d="M12,44.08H14.6V41.46H12Z"/><path class="a" d="M73.12,41h2.62V38.41H73.12Z"/><path class="a" d="M70.07,41h2.62V38.41H70.07Z"/><path class="a" d="M67,41h2.62V38.41H67Z"/><path class="a" d="M60.9,41h2.62V38.41H60.9Z"/><path class="a" d="M57.84,41h2.62V38.41H57.84Z"/><path class="a" d="M54.78,41H57.4V38.41H54.78Z"/><path class="a" d="M51.72,41h2.62V38.41H51.72Z"/><path class="a" d="M48.67,41h2.62V38.41H48.67Z"/><path class="a" d="M45.61,41h2.62V38.41H45.61Z"/><path class="a" d="M42.55,41h2.62V38.41H42.55Z"/><path class="a" d="M39.5,41h2.62V38.41H39.5Z"/><path class="a" d="M36.44,41h2.62V38.41H36.44Z"/><path class="a" d="M33.39,41H36V38.41H33.39Z"/><path class="a" d="M30.33,41H33V38.41H30.33Z"/><path class="a" d="M27.27,41h2.62V38.41H27.27Z"/><path class="a" d="M24.21,41h2.62V38.41H24.21Z"/><path class="a" d="M21.15,41h2.62V38.41H21.15Z"/><path class="a" d="M18.09,41h2.62V38.41H18.09Z"/><path class="a" d="M15,41h2.62V38.41H15Z"/><path class="a" d="M12,41H14.6V38.41H12Z"/><path class="a" d="M76.18,38H78.8V35.35H76.18Z"/><path class="a" d="M73.12,38h2.62V35.35H73.12Z"/><path class="a" d="M70.07,38h2.62V35.35H70.07Z"/><path class="a" d="M67,38h2.62V35.35H67Z"/><path class="a" d="M64,38h2.63V35.35H64Z"/><path class="a" d="M60.9,38h2.62V35.35H60.9Z"/><path class="a" d="M57.84,38h2.62V35.35H57.84Z"/><path class="a" d="M54.78,38H57.4V35.35H54.78Z"/><path class="a" d="M51.72,38h2.62V35.35H51.72Z"/><path class="a" d="M48.67,38h2.62V35.35H48.67Z"/><path class="a" d="M45.61,38h2.62V35.35H45.61Z"/><path class="a" d="M42.55,38h2.62V35.35H42.55Z"/><path class="a" d="M39.5,38h2.62V35.35H39.5Z"/><path class="a" d="M36.44,38h2.62V35.35H36.44Z"/><path class="a" d="M33.39,38H36V35.35H33.39Z"/><path class="a" d="M30.33,38H33V35.35H30.33Z"/><path class="a" d="M27.27,38h2.62V35.35H27.27Z"/><path class="a" d="M24.21,38h2.62V35.35H24.21Z"/><path class="a" d="M21.15,38h2.62V35.35H21.15Z"/><path class="a" d="M18.09,38h2.62V35.35H18.09Z"/><path class="a" d="M15,38h2.62V35.35H15Z"/><path class="a" d="M12,38H14.6V35.35H12Z"/><path class="a" d="M70.07,34.91h2.62V32.29H70.07Z"/><path class="a" d="M67,34.91h2.62V32.29H67Z"/><path class="a" d="M64,34.91h2.63V32.29H64Z"/><path class="a" d="M60.9,34.91h2.62V32.29H60.9Z"/><path class="a" d="M57.84,34.91h2.62V32.29H57.84Z"/><path class="a" d="M54.78,34.91H57.4V32.29H54.78Z"/><path class="a" d="M51.72,34.91h2.62V32.29H51.72Z"/><path class="a" d="M48.67,34.91h2.62V32.29H48.67Z"/><path class="a" d="M45.61,34.91h2.62V32.29H45.61Z"/><path class="a" d="M42.55,34.91h2.62V32.29H42.55Z"/><path class="a" d="M39.5,34.91h2.62V32.29H39.5Z"/><path class="a" d="M36.44,34.91h2.62V32.29H36.44Z"/><path class="a" d="M33.39,34.91H36V32.29H33.39Z"/><path class="a" d="M30.33,34.91H33V32.29H30.33Z"/><path class="a" d="M27.27,34.91h2.62V32.29H27.27Z"/><path class="a" d="M24.21,34.91h2.62V32.29H24.21Z"/><path class="a" d="M21.15,34.91h2.62V32.29H21.15Z"/><path class="a" d="M18.09,34.91h2.62V32.29H18.09Z"/><path class="a" d="M57.84,31.85h2.62V29.23H57.84Z"/><path class="a" d="M54.78,31.85H57.4V29.23H54.78Z"/><path class="a" d="M51.72,31.85h2.62V29.23H51.72Z"/><path class="a" d="M48.67,31.85h2.62V29.23H48.67Z"/><path class="a" d="M45.61,31.85h2.62V29.23H45.61Z"/><path class="a" d="M42.55,31.85h2.62V29.23H42.55Z"/><path class="a" d="M39.5,31.85h2.62V29.23H39.5Z"/><path class="a" d="M36.44,31.85h2.62V29.23H36.44Z"/><path class="a" d="M33.39,31.85H36V29.23H33.39Z"/><path class="a" d="M30.33,31.85H33V29.23H30.33Z"/><path class="a" d="M27.27,31.85h2.62V29.23H27.27Z"/><path class="a" d="M24.21,31.85h2.62V29.23H24.21Z"/><path class="a" d="M21.15,31.85h2.62V29.23H21.15Z"/><path class="a" d="M18.09,31.85h2.62V29.23H18.09Z"/><path class="a" d="M48.67,28.8h2.62V26.18H48.67Z"/><path class="a" d="M45.61,28.8h2.62V26.18H45.61Z"/><path class="a" d="M42.55,28.8h2.62V26.18H42.55Z"/><path class="a" d="M39.5,28.8h2.62V26.18H39.5Z"/><path class="a" d="M36.44,28.8h2.62V26.18H36.44Z"/><path class="a" d="M33.39,28.8H36V26.18H33.39Z"/><path class="a" d="M30.33,28.8H33V26.18H30.33Z"/><path class="a" d="M27.27,28.8h2.62V26.18H27.27Z"/><path class="a" d="M24.21,28.8h2.62V26.18H24.21Z"/><path class="a" d="M21.15,28.8h2.62V26.18H21.15Z"/><path class="a" d="M18.09,28.8h2.62V26.18H18.09Z"/><path class="a" d="M48.67,25.74h2.62V23.12H48.67Z"/><path class="a" d="M45.61,25.74h2.62V23.12H45.61Z"/><path class="a" d="M42.55,25.74h2.62V23.12H42.55Z"/><path class="a" d="M33.39,25.74H36V23.12H33.39Z"/><path class="a" d="M30.33,25.74H33V23.12H30.33Z"/><path class="a" d="M27.27,25.74h2.62V23.12H27.27Z"/><path class="a" d="M48.67,22.68h2.62V20.06H48.67Z"/><path class="a" d="M33.39,22.68H36V20.06H33.39Z"/><path class="a" d="M30.33,22.68H33V20.06H30.33Z"/><path class="a" d="M27.27,22.68h2.62V20.06H27.27Z"/><rect class="b" x="48.67" y="47.5" width="34.03" height="21.05"/><polygon class="c" points="80.75 58.02 65.69 67.26 50.63 58.02 65.69 48.78 80.75 58.02"/><circle class="b" cx="65.69" cy="58.02" r="6.01"/></svg>