<svg xmlns="http://www.w3.org/2000/svg" viewBox="0 0 645 165"><defs><style>.a{fill:#fff;stroke:#201b53;stroke-miterlimit:10;stroke-width:2px;}.b,.d,.e{fill:#ff5732;}.c{fill:#ffab98;}.d,.e{font-size:43.35px;font-family:OpenSans-Extrabold, Open Sans;}.d,.f,.h{font-weight:700;}.d,.h{letter-spacing:-0.02em;}.e{letter-spacing:-0.02em;}.g{font-family:OpenSans-Regular, Open Sans;}</style></defs><title>botoes</title><line class="a" x1="22" y1="113.65" x2="566" y2="113.65"/><line class="a" x1="22" y1="78.65" x2="22" y2="148.65"/><line class="a" x1="90.06" y1="93.65" x2="90.06" y2="133.65"/><line class="a" x1="158.13" y1="93.65" x2="158.13" y2="133.65"/><line class="a" x1="226.19" y1="93.65" x2="226.19" y2="133.65"/><line class="a" x1="294.25" y1="93.65" x2="294.25" y2="133.65"/><line class="a" x1="362.31" y1="93.65" x2="362.31" y2="133.65"/><line class="a" x1="430.38" y1="93.65" x2="430.38" y2="133.65"/><line class="a" x1="498.44" y1="93.65" x2="498.44" y2="133.65"/><line class="a" x1="566.5" y1="78.65" x2="566.5" y2="148.65"/><rect class="b" x="186.5" y="82.5" width="23" height="62"/><rect class="c" x="190.23" y="89.5" width="14.92" height="6"/><rect class="c" x="190.23" y="110.5" width="14.92" height="6"/><rect class="c" x="190.23" y="131.5" width="14.92" height="6"/><text class="d" transform="translate(9 62.8)">1 </text><text class="e" transform="translate(495.12 62.8)"><tspan class="f">+ </tspan><tspan class="g" x="34.06" y="0">de</tspan><tspan class="h" x="83.22" y="0" xml:space="preserve"> 30</tspan></text></svg>
