<svg xmlns="http://www.w3.org/2000/svg" viewBox="0 0 1720 370"><defs><style>.a,.e,.h,.i,.l{font-size:22px;}.a,.h,.j,.k{fill:#201b53;}.a,.e,.h,.i,.j,.l{font-family:OpenSans-Extrabold, Open Sans;font-weight:700;}.a,.e{letter-spacing:-0.02em;}.b,.e{fill:#1d1d1b;}.c{fill:#26efe0;}.d,.i{fill:#ff5732;}.f{font-family:OpenSans-Semibold, Open Sans;}.g{fill:none;stroke:#000;stroke-miterlimit:10;}.i,.l{letter-spacing:-0.02em;}.j{font-size:25px;letter-spacing:-0.02em;}.l{fill:#666;}</style></defs><title>Artboard 7 copy 5en</title><text class="a" transform="translate(463.39 45.94)"><tspan xml:space="preserve"> BRASIL</tspan><tspan class="b" x="81.48" y="0" xml:space="preserve"> X</tspan><tspan class="c" x="102.23" y="0"> </tspan><tspan class="d" x="107.5" y="0">PARAÍBA</tspan></text><text class="e" transform="translate(482.84 332.28)">EDUCAÇÃO<tspan class="f"><tspan x="-63.89" y="26">Média de analfabetismo</tspan></tspan></text><line class="g" x1="461.25" y1="296.87" x2="624.25" y2="296.87"/><text class="h" transform="translate(494.2 146.93)">7%</text><text class="i" transform="translate(558.05 225.24)">5,7% </text><text class="e" transform="translate(872.49 332.28)">SAÚDE<tspan class="f"><tspan x="-65.57" y="26">Índice de obesidade</tspan></tspan></text><line class="g" x1="826.87" y1="296.87" x2="989.87" y2="296.87"/><text class="h" transform="translate(852.12 134.93)">18,9</text><text class="i" transform="translate(920.79 109.27)">21,7</text><text class="e" transform="translate(1213.2 332.28)">ECONOMIA<tspan class="f"><tspan x="41.54" y="26">IDH</tspan></tspan></text><line class="g" x1="1192.5" y1="296.87" x2="1355.5" y2="296.87"/><line class="g" x1="1192.5" y1="65.53" x2="1355.5" y2="65.53"/><text class="j" transform="translate(263.62 45.56)">INDICADORES:</text><rect class="d" x="923.63" y="120.87" width="33.41" height="175.99"/><rect class="k" x="858.73" y="142.23" width="33.41" height="153.28"/><rect class="k" x="494.37" y="160.93" width="33.41" height="134.62"/><rect class="d" x="558.05" y="240.49" width="33.41" height="56.77"/><rect class="d" x="1289.76" y="208.17" width="31.73" height="89.08"/><rect class="k" x="1227.51" y="120.87" width="31.73" height="176.39"/><text class="h" transform="translate(1211.33 109.27)">0,699 </text><text class="i" transform="translate(1278 195.87)">0,659</text><text class="l" transform="translate(1374.5 301.87)">0,6</text><text class="l" transform="translate(1374.5 71.87)">0,7</text></svg>