<svg xmlns="http://www.w3.org/2000/svg" viewBox="0 0 1720 370"><defs><style>.a{fill:none;stroke:#201b53;stroke-miterlimit:10;}.b{font-size:25px;letter-spacing:-0.02em;}.b,.d,.e,.j,.k,.l,.m{fill:#201b53;}.b,.e,.f,.h,.m,.o{font-family:OpenSans-Extrabold, Open Sans;}.b,.e,.f,.h,.l,.m{font-weight:700;}.c,.h{fill:#ff5732;}.e,.h,.l,.m{font-size:22px;}.e{letter-spacing:-0.02em;}.f{font-size:60px;letter-spacing:-0.02em;}.f,.g{fill:#fd4d59;}.i,.o{letter-spacing:-0.02em;}.j{letter-spacing:-0.02em;}.k,.l,.n{font-family:OpenSans-Semibold, Open Sans;}</style></defs><title>exports para svg</title><line class="a" x1="-0.25" y1="4.25" x2="1720.25" y2="4.25"/><text class="b" transform="translate(70.84 52.44)">O QUE OS NÚMEROS DIZEM</text><path class="c" d="M917.54,194.69l-3,28a1.74,1.74,0,0,1-3.46,0l-3-28a4.79,4.79,0,1,1,9.52-1A4.44,4.44,0,0,1,917.54,194.69Z"/><path class="c" d="M927.31,194.79l-3,28a1.73,1.73,0,0,1-3.45,0l-3-28a4.79,4.79,0,0,1,9.53-1A5.9,5.9,0,0,1,927.31,194.79Z"/><path class="c" d="M918,161.7h0a10.89,10.89,0,0,1,10.89,10.89v22.61a0,0,0,0,1,0,0H907.13a0,0,0,0,1,0,0V172.59A10.89,10.89,0,0,1,918,161.7Z"/><path class="c" d="M904.25,195.41a13.77,13.77,0,1,1,27.54,0Z"/><circle class="c" cx="918.02" cy="154.09" r="5.34"/><path class="c" d="M921.07,162.13a3.08,3.08,0,0,1-6.1,0,11,11,0,0,1,6.1,0Z"/><path class="c" d="M964.61,194.69l-3,28a1.73,1.73,0,0,1-3.45,0l-3-28a4.79,4.79,0,1,1,9.52-1A4.44,4.44,0,0,1,964.61,194.69Z"/><path class="c" d="M974.38,194.79l-3,28a1.73,1.73,0,0,1-3.45,0l-3-28a4.79,4.79,0,0,1,9.53-1A5.06,5.06,0,0,1,974.38,194.79Z"/><path class="c" d="M965.09,161.7h0A10.89,10.89,0,0,1,976,172.59v22.61a0,0,0,0,1,0,0H954.2a0,0,0,0,1,0,0V172.59a10.89,10.89,0,0,1,10.89-10.89Z"/><path class="c" d="M951.32,195.41a13.78,13.78,0,0,1,27.55,0Z"/><circle class="c" cx="965.09" cy="154.09" r="5.34"/><path class="c" d="M968.15,162.13a3.09,3.09,0,0,1-6.11,0,11.07,11.07,0,0,1,6.11,0Z"/><path class="c" d="M1011.69,194.69l-3,28a1.73,1.73,0,0,1-3.45,0l-3-28a4.79,4.79,0,0,1,9.53-1A5.9,5.9,0,0,1,1011.69,194.69Z"/><path class="c" d="M1021.45,194.79l-3,28a1.73,1.73,0,0,1-3.45,0l-3-28a4.79,4.79,0,0,1,9.52-1A5.06,5.06,0,0,1,1021.45,194.79Z"/><path class="c" d="M1012.17,161.7h0a10.89,10.89,0,0,1,10.89,10.89v22.61a0,0,0,0,1,0,0h-21.79a0,0,0,0,1,0,0V172.59A10.89,10.89,0,0,1,1012.17,161.7Z"/><path class="c" d="M998.39,195.41a13.78,13.78,0,0,1,27.55,0Z"/><circle class="c" cx="1012.17" cy="154.09" r="5.34"/><path class="c" d="M1015.22,162.13a3.09,3.09,0,0,1-6.11,0,11.07,11.07,0,0,1,6.11,0Z"/><path class="d" d="M1058.76,194.69l-3,28a1.73,1.73,0,0,1-3.45,0l-3-28a4.79,4.79,0,1,1,9.52-1A5.06,5.06,0,0,1,1058.76,194.69Z"/><path class="d" d="M1068.52,194.79l-3,28a1.73,1.73,0,0,1-3.45,0l-3-28a4.79,4.79,0,0,1,9.52-1A4.43,4.43,0,0,1,1068.52,194.79Z"/><path class="d" d="M1059.24,161.7h0a10.89,10.89,0,0,1,10.89,10.89v22.61a0,0,0,0,1,0,0h-21.79a0,0,0,0,1,0,0V172.59a10.89,10.89,0,0,1,10.89-10.89Z"/><path class="d" d="M1045.47,195.41a13.77,13.77,0,0,1,27.54,0Z"/><circle class="d" cx="1059.24" cy="154.09" r="5.34"/><path class="d" d="M1062.29,162.13a3.08,3.08,0,0,1-6.1,0,11,11,0,0,1,6.1,0Z"/><path class="d" d="M1105.83,194.69l-3,28a1.74,1.74,0,0,1-3.46,0l-3-28a4.79,4.79,0,1,1,9.52-1A4.44,4.44,0,0,1,1105.83,194.69Z"/><path class="d" d="M1115.6,194.79l-3,28a1.73,1.73,0,0,1-3.45,0l-3-28a4.79,4.79,0,0,1,9.53-1A5.9,5.9,0,0,1,1115.6,194.79Z"/><path class="d" d="M1106.31,161.7h0a10.89,10.89,0,0,1,10.89,10.89v22.61a0,0,0,0,1,0,0h-21.79a0,0,0,0,1,0,0V172.59a10.89,10.89,0,0,1,10.89-10.89Z"/><path class="d" d="M1092.54,195.41a13.77,13.77,0,1,1,27.54,0Z"/><circle class="d" cx="1106.31" cy="154.09" r="5.34"/><path class="d" d="M1109.36,162.13a3.08,3.08,0,0,1-6.1,0,11,11,0,0,1,6.1,0Z"/><path class="c" d="M917.54,113.69l-3,28a1.74,1.74,0,0,1-3.46,0l-3-28a4.79,4.79,0,1,1,9.52-1A4.44,4.44,0,0,1,917.54,113.69Z"/><path class="c" d="M927.31,113.79l-3,28a1.73,1.73,0,0,1-3.45,0l-3-28a4.79,4.79,0,0,1,9.53-1A5.9,5.9,0,0,1,927.31,113.79Z"/><path class="c" d="M918,80.7h0a10.89,10.89,0,0,1,10.89,10.89v22.61a0,0,0,0,1,0,0H907.13a0,0,0,0,1,0,0V91.59A10.89,10.89,0,0,1,918,80.7Z"/><path class="c" d="M904.25,114.41a13.77,13.77,0,0,1,27.54,0Z"/><circle class="c" cx="918.02" cy="73.09" r="5.34"/><path class="c" d="M921.07,81.13a3.08,3.08,0,0,1-6.1,0,11,11,0,0,1,6.1,0Z"/><path class="c" d="M964.61,113.69l-3,28a1.73,1.73,0,0,1-3.45,0l-3-28a4.79,4.79,0,1,1,9.52-1A4.44,4.44,0,0,1,964.61,113.69Z"/><path class="c" d="M974.38,113.79l-3,28a1.73,1.73,0,0,1-3.45,0l-3-28a4.79,4.79,0,0,1,9.53-1A5.06,5.06,0,0,1,974.38,113.79Z"/><path class="c" d="M965.09,80.7h0A10.89,10.89,0,0,1,976,91.59v22.61a0,0,0,0,1,0,0H954.2a0,0,0,0,1,0,0V91.59A10.89,10.89,0,0,1,965.09,80.7Z"/><path class="c" d="M951.32,114.41a13.78,13.78,0,0,1,27.55,0Z"/><circle class="c" cx="965.09" cy="73.09" r="5.34"/><path class="c" d="M968.15,81.13a3.09,3.09,0,0,1-6.11,0,11.07,11.07,0,0,1,6.11,0Z"/><path class="c" d="M1011.69,113.69l-3,28a1.73,1.73,0,0,1-3.45,0l-3-28a4.79,4.79,0,0,1,9.53-1A5.9,5.9,0,0,1,1011.69,113.69Z"/><path class="c" d="M1021.45,113.79l-3,28a1.73,1.73,0,0,1-3.45,0l-3-28a4.79,4.79,0,0,1,9.52-1A5.06,5.06,0,0,1,1021.45,113.79Z"/><path class="c" d="M1012.17,80.7h0a10.89,10.89,0,0,1,10.89,10.89v22.61a0,0,0,0,1,0,0h-21.79a0,0,0,0,1,0,0V91.59A10.89,10.89,0,0,1,1012.17,80.7Z"/><path class="c" d="M998.39,114.41a13.78,13.78,0,0,1,27.55,0Z"/><circle class="c" cx="1012.17" cy="73.09" r="5.34"/><path class="c" d="M1015.22,81.13a3.09,3.09,0,0,1-6.11,0,11.07,11.07,0,0,1,6.11,0Z"/><path class="c" d="M1058.76,113.69l-3,28a1.73,1.73,0,0,1-3.45,0l-3-28a4.79,4.79,0,1,1,9.52-1A5.06,5.06,0,0,1,1058.76,113.69Z"/><path class="c" d="M1068.52,113.79l-3,28a1.73,1.73,0,0,1-3.45,0l-3-28a4.79,4.79,0,0,1,9.52-1A4.43,4.43,0,0,1,1068.52,113.79Z"/><path class="c" d="M1059.24,80.7h0a10.89,10.89,0,0,1,10.89,10.89v22.61a0,0,0,0,1,0,0h-21.79a0,0,0,0,1,0,0V91.59a10.89,10.89,0,0,1,10.89-10.89Z"/><path class="c" d="M1045.47,114.41a13.77,13.77,0,0,1,27.54,0Z"/><circle class="c" cx="1059.24" cy="73.09" r="5.34"/><path class="c" d="M1062.29,81.13a3.08,3.08,0,0,1-6.1,0,11,11,0,0,1,6.1,0Z"/><path class="c" d="M1105.83,113.69l-3,28a1.74,1.74,0,0,1-3.46,0l-3-28a4.79,4.79,0,1,1,9.52-1A4.44,4.44,0,0,1,1105.83,113.69Z"/><path class="c" d="M1115.6,113.79l-3,28a1.73,1.73,0,0,1-3.45,0l-3-28a4.79,4.79,0,0,1,9.53-1A5.9,5.9,0,0,1,1115.6,113.79Z"/><path class="c" d="M1106.31,80.7h0a10.89,10.89,0,0,1,10.89,10.89v22.61a0,0,0,0,1,0,0h-21.79a0,0,0,0,1,0,0V91.59a10.89,10.89,0,0,1,10.89-10.89Z"/><path class="c" d="M1092.54,114.41a13.77,13.77,0,0,1,27.54,0Z"/><circle class="c" cx="1106.31" cy="73.09" r="5.34"/><path class="c" d="M1109.36,81.13a3.08,3.08,0,0,1-6.1,0,11,11,0,0,1,6.1,0Z"/><text class="e" transform="translate(70.84 114.16)">NA POPULAÇÃO DO PAÍS</text><text class="e" transform="translate(446.84 114.16)">FAIXA ETÁRIA PREDOMINANTE</text><text class="f" transform="translate(134.84 199.04)">51%</text><text class="f" transform="translate(459.84 198.04)">16%</text><rect class="d" x="-14.62" y="235.88" width="219.25" height="45" transform="translate(353.38 163.37) rotate(90)"/><rect class="g" x="39.09" y="182.16" width="111.82" height="45" transform="translate(299.66 109.66) rotate(90)"/><text class="h" transform="translate(896.25 250.47)"><tspan class="i">Sete </tspan><tspan class="j" x="53.53" y="0">em cada 10</tspan><tspan class="k" x="175.36" y="0" xml:space="preserve"> mulheres </tspan><tspan class="k"><tspan x="0" y="26">do mundo já foram ou serão </tspan><tspan x="0" y="52">violentadas em algum </tspan><tspan x="0" y="78">momento da vida</tspan></tspan></text><text class="l" transform="translate(459.84 233.47)">estão entre <tspan class="c" x="127.11" y="0">20 e 29 </tspan><tspan class="c"><tspan x="0" y="26">anos</tspan></tspan></text><text class="l" transform="translate(134.84 226.47)">são mulheres</text><text class="m" transform="translate(1393.25 95.47)"><tspan class="i">10% dos casos </tspan><tspan class="n" x="160.57" y="0">são </tspan><tspan class="n"><tspan x="0" y="26">denunciados e </tspan><tspan x="0" y="52">registrados pela polícia. </tspan><tspan x="0" y="78">O Ipea estima o </tspan><tspan x="0" y="104">número real de </tspan><tspan x="0" y="130">estupros que </tspan><tspan x="0" y="156">acontecem no país seja </tspan><tspan x="0" y="182">pelo menos 10 vezes </tspan><tspan x="0" y="208">maior:</tspan><tspan class="o" x="68.9" y="208" xml:space="preserve"> cerca de 530 </tspan></tspan><tspan class="i" x="0" y="234">mil</tspan><tspan class="n" x="34.95" y="234">. </tspan></text><path class="c" d="M1331.25,111.54l43.38-14.67a45.79,45.79,0,1,1-58.05-28.71,44.41,44.41,0,0,1,41.14,6Z"/><path class="d" d="M1331.25,111.54l26.47-37.36a43.85,43.85,0,0,1,16.91,22.69Z"/></svg>