<svg xmlns="http://www.w3.org/2000/svg" viewBox="0 0 1720 370"><defs><style>.a,.b,.i,.l,.m{font-size:22px;}.a,.b,.d,.f,.i,.l,.m{fill:#201b53;}.a,.i,.m{font-family:OpenSans-Semibold, Open Sans;}.a,.b,.c,.f,.g{font-weight:700;}.b,.c,.f,.g{font-family:OpenSans-Extrabold, Open Sans;}.b{letter-spacing:-0.02em;}.c,.g{font-size:60px;}.c,.e,.g{fill:#fd4d59;}.c,.h{letter-spacing:-0.02em;}.f{font-size:25px;letter-spacing:-0.02em;}.j,.k,.o{fill:none;stroke-miterlimit:10;}.j,.k{stroke:#201b53;}.k{stroke-dasharray:12.22 12.22;}.n{fill:#ff5732;}.o{stroke:#ff5732;}</style></defs><title>Artboard 7 copy 2en</title><text class="a" transform="translate(339.12 227.72)">são mulheres</text><text class="b" transform="translate(275.12 103.41)">NA POPULAÇÃO DO PAÍS</text><text class="c" transform="translate(339.12 200.29)">51%</text><rect class="d" x="189.65" y="225.13" width="219.25" height="45" transform="translate(546.9 -51.65) rotate(90)"/><rect class="e" x="243.37" y="171.41" width="111.82" height="45" transform="translate(493.19 -105.37) rotate(90)"/><rect class="d" x="520.62" y="171.41" width="111.82" height="45" transform="translate(770.44 -382.62) rotate(90)"/><rect class="e" x="547.29" y="144.74" width="58.48" height="45" transform="translate(743.77 -409.29) rotate(90)"/><text class="f" transform="translate(275.12 41.69)">O QUE OS NÚMEROS DIZEM</text><text class="g" transform="translate(619.1 192.35)"><tspan class="h">52% </tspan><tspan class="i"><tspan x="0" y="26">das mulheres se </tspan><tspan x="0" y="52">declaram negras.</tspan></tspan></text><line class="j" x1="321.78" y1="249.82" x2="327.78" y2="249.82"/><line class="k" x1="340" y1="249.82" x2="553.92" y2="249.82"/><line class="j" x1="560.03" y1="249.82" x2="566.03" y2="249.82"/><line class="j" x1="321.78" y1="137.5" x2="327.78" y2="137.5"/><line class="k" x1="340" y1="137.5" x2="553.92" y2="137.5"/><line class="j" x1="560.03" y1="137.5" x2="566.03" y2="137.5"/><text class="g" transform="translate(1099.23 150.85)"><tspan class="h">54%</tspan><tspan class="l" x="123.61" y="0" xml:space="preserve"> foi o aumento </tspan><tspan class="m" x="293.67" y="0">do </tspan><tspan class="i"><tspan x="0" y="26">número de mulheres negras </tspan><tspan x="0" y="52">assasinadas entre 2003 e 2013, </tspan><tspan x="0" y="78">ao passo que o índice de </tspan><tspan x="0" y="104">feminicídios de brancas caiu </tspan><tspan x="0" y="130">10% no mesmo período de </tspan><tspan x="0" y="156">tempo. Os dados são do Mapa </tspan><tspan x="0" y="182">da Violência 2015.</tspan></tspan></text><rect class="d" x="1001.7" y="177.34" width="35" height="128.28"/><rect class="n" x="1001.7" y="108.88" width="35" height="69.27"/><line class="j" x1="1052.52" y1="178.15" x2="976.21" y2="178.15"/><line class="j" x1="1052.52" y1="305.63" x2="976.21" y2="305.63"/><line class="o" x1="987.88" y1="167.67" x2="987.88" y2="123.26"/><polygon class="n" points="981.8 124.07 993.95 124.07 987.88 118 981.8 124.07"/></svg>