<svg xmlns="http://www.w3.org/2000/svg" viewBox="0 0 250 190"><defs><style>.a{fill:#67d9ea;}.b{fill:#201b53;}.c{fill:none;stroke:#67d9ea;stroke-miterlimit:10;}.d{font-size:20.62px;font-family:OpenSans-Semibold, Open Sans;font-weight:700;letter-spacing:-0.02em;}</style></defs><title>Untitled-9</title><rect class="a" x="58.13" y="103" width="150" height="86"/><rect class="b" x="37.13" y="146" width="21" height="43"/><rect class="b" x="37.13" y="103" width="21" height="43"/><rect class="b" x="117.13" y="151" width="28" height="39"/><rect class="b" x="99.88" y="103" width="10" height="86"/><line class="c" x1="104.88" y1="103" x2="104.88" y2="189"/><line class="c" x1="107.92" y1="103" x2="107.92" y2="189"/><line class="c" x1="101.83" y1="103" x2="101.83" y2="189"/><rect class="b" x="97.13" y="103" width="15.5" height="7"/><rect class="b" x="97.13" y="151" width="15.5" height="7"/><line class="c" x1="99.38" y1="106.5" x2="110.42" y2="106.5"/><line class="c" x1="99.38" y1="154.5" x2="110.42" y2="154.5"/><rect class="b" x="150.71" y="103" width="10" height="86"/><line class="c" x1="155.71" y1="103" x2="155.71" y2="189"/><line class="c" x1="158.75" y1="103" x2="158.75" y2="189"/><line class="c" x1="152.67" y1="103" x2="152.67" y2="189"/><rect class="b" x="147.96" y="103" width="15.5" height="7"/><rect class="b" x="147.96" y="151" width="15.5" height="7"/><line class="c" x1="150.21" y1="106.5" x2="161.25" y2="106.5"/><line class="c" x1="150.21" y1="154.5" x2="161.25" y2="154.5"/><polygon class="b" points="131.13 134.17 117.13 148.33 145.13 148.33 131.13 134.17"/><circle class="a" cx="131.13" cy="143.83" r="2"/><rect class="b" x="63.02" y="107.5" width="28.94" height="21.83"/><line class="c" x1="63.02" y1="123.42" x2="91.96" y2="123.42"/><line class="c" x1="63.02" y1="126.58" x2="91.96" y2="126.58"/><line class="c" x1="77.49" y1="107.5" x2="77.49" y2="123.42"/><rect class="b" x="116.66" y="107.5" width="28.94" height="21.83"/><line class="c" x1="116.66" y1="123.42" x2="145.59" y2="123.42"/><line class="c" x1="116.66" y1="126.58" x2="145.59" y2="126.58"/><line class="c" x1="131.12" y1="107.5" x2="131.12" y2="123.42"/><rect class="b" x="171.35" y="107.5" width="28.94" height="21.83"/><line class="c" x1="171.35" y1="123.42" x2="200.29" y2="123.42"/><line class="c" x1="171.35" y1="126.58" x2="200.29" y2="126.58"/><line class="c" x1="185.82" y1="107.5" x2="185.82" y2="123.42"/><rect class="b" x="63.02" y="135.08" width="28.94" height="21.83"/><line class="c" x1="63.02" y1="151" x2="91.96" y2="151"/><line class="c" x1="63.02" y1="154.17" x2="91.96" y2="154.17"/><line class="c" x1="77.49" y1="135.08" x2="77.49" y2="151"/><rect class="b" x="171.35" y="135.08" width="28.94" height="21.83"/><line class="c" x1="171.35" y1="151" x2="200.29" y2="151"/><line class="c" x1="171.35" y1="154.17" x2="200.29" y2="154.17"/><line class="c" x1="185.82" y1="135.08" x2="185.82" y2="151"/><rect class="b" x="63.02" y="162.67" width="28.94" height="21.83"/><line class="c" x1="63.02" y1="178.58" x2="91.96" y2="178.58"/><line class="c" x1="63.02" y1="181.75" x2="91.96" y2="181.75"/><line class="c" x1="77.49" y1="162.67" x2="77.49" y2="178.58"/><rect class="b" x="171.35" y="162.67" width="28.94" height="21.83"/><line class="c" x1="171.35" y1="178.58" x2="200.29" y2="178.58"/><line class="c" x1="171.35" y1="181.75" x2="200.29" y2="181.75"/><line class="c" x1="185.82" y1="162.67" x2="185.82" y2="178.58"/><polygon class="a" points="200.29 85.33 183.71 99.67 216.88 99.67 200.29 85.33"/><rect class="a" x="49.71" y="85.33" width="150.58" height="14.33"/><polygon class="b" points="49.71 85.33 33.13 99.67 66.29 99.67 49.71 85.33"/><rect class="b" x="33.13" y="99.67" width="183.75" height="3.33"/><text class="d" transform="translate(76.77 63.5)">SUPERIOR</text></svg>