<svg xmlns="http://www.w3.org/2000/svg" viewBox="0 0 1720 370"><defs><style>.a{font-size:57.64px;letter-spacing:0.28em;}.a,.d,.g,.i{fill:#201b53;}.a,.f,.h{font-family:OpenSans-Bold, Open Sans;}.a,.f,.g{font-weight:700;}.b{fill:#67d9ea;}.c,.h{fill:#ff5732;}.e,.f{fill:#fd4d59;}.f,.g{font-size:31px;}.g,.i{font-family:OpenSans-Semibold, Open Sans;}.j,.k{fill:none;stroke:#201b53;stroke-miterlimit:10;}.k{stroke-width:2px;}</style></defs><title>Artboard 7 copy 4en</title><text class="a" transform="translate(447.34 120.04)">OU</text><circle class="b" cx="196.33" cy="49.16" r="32.32"/><rect class="b" x="164.49" y="49.16" width="64.15" height="49.48"/><path class="c" d="M194.32,206.79,181.59,341.22a7.27,7.27,0,0,1-14.47,0L154.39,206.79A20.05,20.05,0,0,1,194.32,203,22.72,22.72,0,0,1,194.32,206.79Z"/><path class="c" d="M235.25,207.22,222.52,341.65a7.27,7.27,0,0,1-14.47,0L195.32,207.22a20.05,20.05,0,0,1,39.93-3.78A21.69,21.69,0,0,1,235.25,207.22Z"/><path class="d" d="M196.33,85.72h0A45.67,45.67,0,0,1,242,131.39v94.79a0,0,0,0,1,0,0H150.65a0,0,0,0,1,0,0V131.39a45.67,45.67,0,0,1,45.67-45.67Z"/><path class="d" d="M138.59,227a57.74,57.74,0,0,1,115.47,0Z"/><circle class="c" cx="196.33" cy="53.83" r="22.41"/><path class="b" d="M218.73,42.63s-9.48-6-22.4,0a28.53,28.53,0,0,1-24.13,0V30.56h46.53Z"/><path class="c" d="M209.12,87.53a12.92,12.92,0,0,1-25.59,0,46.13,46.13,0,0,1,25.59,0Z"/><path class="d" d="M795.79,47.15c0,14-50.87,14-50.87,0a25.44,25.44,0,1,1,50.87,0Z"/><path class="c" d="M768.35,206.79,755.62,341.22a7.27,7.27,0,0,1-14.47,0L728.42,206.79A20.05,20.05,0,0,1,768.35,203,22.72,22.72,0,0,1,768.35,206.79Z"/><path class="c" d="M809.28,207.22,796.55,341.65a7.27,7.27,0,0,1-14.47,0L769.35,207.22a20.05,20.05,0,0,1,39.93-3.78A21.69,21.69,0,0,1,809.28,207.22Z"/><path class="e" d="M770.36,85.72h0A45.67,45.67,0,0,1,816,131.39V244.11a0,0,0,0,1,0,0H724.68a0,0,0,0,1,0,0V131.39A45.67,45.67,0,0,1,770.36,85.72Z"/><circle class="b" cx="770.36" cy="53.83" r="22.41"/><path class="d" d="M792.76,42.63s-9.48-6-22.4,0a28.53,28.53,0,0,1-24.13,0L754,30.72l35,.71Z"/><path class="b" d="M783.15,87.53a12.92,12.92,0,0,1-25.59,0,46.13,46.13,0,0,1,25.59,0Z"/><circle class="d" cx="1008.8" cy="63.15" r="20"/><text class="f" transform="translate(1004.07 75.93)">i</text><text class="g" transform="translate(1059.47 132.71)">Segundo dados do grupo GBG <tspan class="h"><tspan x="0" y="37.2">a cada 19 horas</tspan><tspan class="i" x="239.06" y="37.2" xml:space="preserve"> um brasileiro </tspan></tspan><tspan x="0" y="74.4">LGBT+ morre assassinado ou por </tspan><tspan x="0" y="111.6">suicídio causa de LGBT+ fobia.</tspan></text><polyline class="j" points="1008.8 76.16 1009.3 157.66 956.3 200.66 1008.8 200.16 1008.8 353.15"/><rect class="b" x="429.43" y="257.25" width="226" height="90.44"/><rect class="d" x="332.43" y="257.25" width="97" height="90.44"/><polygon class="b" points="622.45 201.19 677.61 257.25 567.29 257.25 622.45 201.19"/><rect class="b" x="365.42" y="201.19" width="257.03" height="56.06"/><polygon class="d" points="365.42 201.19 420.58 257.25 310.26 257.25 365.42 201.19"/><rect class="d" x="580.43" y="285.69" width="42.01" height="62"/><rect class="d" x="457.43" y="284.19" width="91.5" height="42"/><rect class="b" x="345.93" y="284.19" width="70" height="42"/><line class="k" x1="425.93" y1="98.64" x2="321.59" y2="98.64"/><polygon class="d" points="323.92 90.67 310.11 98.64 323.92 106.62 323.92 90.67"/><line class="k" x1="674.78" y1="98.64" x2="570.43" y2="98.64"/><polygon class="d" points="672.44 90.67 686.26 98.64 672.44 106.62 672.44 90.67"/></svg>
